<svg width="1002" height="217" viewBox="0 0 1002 217" fill="none" xmlns="http://www.w3.org/2000/svg">
<path fill-rule="evenodd" clip-rule="evenodd" d="M104.461 33.998C152.656 33.998 185.93 62.8591 185.931 104.198C185.931 145.294 152.168 174.893 104.461 174.893C77.3084 174.892 54.3155 164.376 40.6155 146.521L40.8545 216.482H6.10352e-05V37.1752H40.6155V62.6165C54.3154 44.5162 77.3076 33.9989 104.461 33.998ZM93.7024 60.9045C62.3874 60.9045 40.8545 78.5157 40.8545 104.445C40.8545 130.375 62.3874 147.986 93.7024 147.986C124.282 147.985 145.563 130.374 145.563 104.445C145.563 78.2716 124.282 60.9052 93.7024 60.9045Z" fill="#181818"/>
<path fill-rule="evenodd" clip-rule="evenodd" d="M665.274 32.7717C714.692 32.7717 755.303 61.3912 755.305 107.622V110.075H614.879C617.571 133.556 637.385 148.719 665.274 148.719C687.781 148.719 704.909 139.183 712.738 123.039H753.107C742.587 154.348 709.312 176.118 664.788 176.119C613.413 176.119 574.511 146.765 574.51 104.692C574.51 62.6178 614.632 32.7718 665.274 32.7717ZM664.788 59.6782C641.302 59.6782 623.438 71.4212 617.077 89.5229H713.224C706.618 71.1779 688.517 59.6793 664.788 59.6782Z" fill="#181818"/>
<path d="M841.258 33.2575C887.986 33.2575 921.748 50.8745 931.289 82.6749H892.633C885.293 66.7753 868.416 59.1925 841.505 59.1924C817.04 59.1924 805.294 65.5532 805.294 74.1148C805.296 86.0991 826.093 88.0575 851.046 89.7698C887.498 92.4606 932.516 95.1507 932.516 129.887C932.515 156.549 902.178 175.633 853.005 175.633C806.032 175.633 772.761 157.527 763.953 124.504H803.343C809.214 140.892 826.825 150.191 852.511 150.192C880.401 150.192 892.88 143.092 892.88 133.796C892.876 121.08 870.863 119.365 845.423 117.409C809.215 114.473 765.666 111.537 765.666 78.0246C765.667 51.118 794.288 33.258 841.258 33.2575Z" fill="#181818"/>
<path fill-rule="evenodd" clip-rule="evenodd" d="M343.703 33.5043C391.408 33.5048 419.056 52.3427 419.056 88.7903V171.715H378.927V151.904C363.27 167.312 340.765 174.892 314.101 174.893C275.936 174.893 252.199 159.24 252.198 136.002C252.198 100.043 300.887 97.3535 339.052 92.4612C362.538 89.5258 378.441 86.3419 378.441 76.3126C378.439 67.0178 365.959 59.4393 342.229 59.4393C316.543 59.4403 299.908 70.2029 294.526 85.6132H256.117C264.19 55.7697 297.464 33.5043 343.703 33.5043ZM378.927 104.931C369.63 110.801 353.729 112.76 338.072 114.717C313.853 117.897 292.081 120.101 292.081 135.023C292.081 145.052 303.337 151.171 322.909 151.171C343.457 151.17 366.205 144.073 378.927 130.866V104.931Z" fill="#181818"/>
<path d="M239.631 171.715H199.263V0.482422H239.631V171.715Z" fill="#181818"/>
<path d="M511.564 37.1752H571.986V64.8142H511.564V126.709C511.566 138.448 518.656 143.583 533.823 143.583H571.986V171.715H516.454C485.629 171.715 471.682 158.018 471.681 131.845V64.8142H423.731V37.1752H471.681V7.82416H511.564V37.1752Z" fill="#181818"/>
<path d="M962.117 14.7518H950.785V43.864H942.55V14.7518H931.05V8.63637H962.117V14.7518Z" fill="#181818"/>
<path d="M983.811 33.1778L990.827 8.63637H1002V43.864H994.737L994.904 17.1168L987.235 43.864H980.227L972.637 17.1168L972.805 43.864H965.629V8.63637H976.802L983.811 33.1778Z" fill="#181818"/>
</svg>
