<svg xmlns="http://www.w3.org/2000/svg" viewBox="0 0 64 64">
<rect width="512" height="512" transform="matrix(-1 0 0 -1 512 512)" fill="#FF3EB5"/>
<path d="M162.329 480.434C159.686 480.434 157.544 478.291 157.544 475.648L157.544 37.6437C157.544 35.0009 159.686 32.8585 162.329 32.8585V32.8585C206.376 32.8585 242.084 68.5657 242.084 112.613L242.084 400.679C242.084 444.726 206.376 480.434 162.329 480.434V480.434Z" fill="#181818"/>
<path d="M289.144 374.774C286.501 374.774 284.359 372.632 284.359 369.989L284.359 51.3378C284.359 48.695 286.501 46.5526 289.144 46.5526V46.5526C333.191 46.5525 368.898 82.2598 368.898 126.307L368.898 295.02C368.898 339.067 333.191 374.774 289.144 374.774V374.774Z" fill="#181818"/>
</svg>
