<svg width="232" height="54" viewBox="0 0 232 54" fill="none" xmlns="http://www.w3.org/2000/svg">
<path d="M25.9062 8.3125C37.8583 8.3125 46.1094 15.4713 46.1094 25.7246C46.1093 35.9171 37.7369 43.2578 25.9062 43.2578C19.1719 43.2578 13.4688 40.6495 10.0713 36.2207L10.1318 53.5723H0V9.10059H10.0713V15.4102C13.4688 10.9207 19.1719 8.31251 25.9062 8.3125ZM164.981 8.00879C177.237 8.00881 187.308 15.1068 187.309 26.5732V27.1807H152.483C153.151 33.0049 158.065 36.7666 164.981 36.7666C170.563 36.7666 174.81 34.3997 176.751 30.3955H186.762C184.153 38.1612 175.902 43.5614 164.86 43.5615C152.12 43.5615 142.473 36.281 142.473 25.8457C142.473 15.4104 152.423 8.00879 164.981 8.00879ZM208.624 8.12988C220.212 8.12988 228.585 12.4986 230.951 20.3857H221.365C219.545 16.4422 215.358 14.5605 208.685 14.5605C202.618 14.5606 199.706 16.1384 199.706 18.2617C199.706 21.2345 204.863 21.7198 211.051 22.1445C220.091 22.8119 231.255 23.4795 231.255 32.0947C231.255 38.7078 223.731 43.4404 211.536 43.4404C199.888 43.4403 191.636 38.9502 189.452 30.7598H199.221C200.677 34.8246 205.045 37.1298 211.415 37.1299C218.331 37.1299 221.426 35.3709 221.426 33.0654C221.426 29.9107 215.966 29.4863 209.656 29.001C200.677 28.2729 189.877 27.5443 189.877 19.2324C189.877 12.5588 196.976 8.12997 208.624 8.12988ZM85.2344 8.19043C97.0651 8.19043 103.921 12.8625 103.921 21.9023V42.4697H93.9707V37.5547C90.0878 41.3769 84.5065 43.2578 77.8936 43.2578C68.429 43.2578 62.5439 39.375 62.5439 33.6113C62.5441 24.693 74.6175 24.0259 84.082 22.8125C89.9062 22.0845 93.8496 21.2951 93.8496 18.8076C93.8493 16.5023 90.7548 14.6221 84.8701 14.6221C78.5 14.6222 74.3749 17.2913 73.04 21.1133H63.5146C65.5169 13.7116 73.7678 8.19045 85.2344 8.19043ZM59.4258 42.4697H49.415V0H59.4258V42.4697ZM126.862 9.10059H141.848V15.9561H126.862V31.3057C126.862 34.2178 128.621 35.4921 132.383 35.4922H141.848V42.4697H128.075C120.431 42.4697 116.973 39.0718 116.973 32.5801V15.9561H105.081V9.10059H116.973V1.82031H126.862V9.10059ZM93.9707 25.9062C91.6652 27.3623 87.7217 27.8477 83.8389 28.333C77.8325 29.1217 72.4326 29.6683 72.4326 33.3691C72.4328 35.8564 75.2239 37.373 80.0771 37.373C85.1733 37.373 90.8158 35.6139 93.9707 32.3379V25.9062ZM23.2363 14.9854C15.4708 14.9855 10.1318 19.3542 10.1318 25.7852C10.1319 32.216 15.4708 36.5838 23.2363 36.584C30.8201 36.584 36.0986 32.2162 36.0986 25.7852C36.0986 19.2934 30.8201 14.9854 23.2363 14.9854ZM164.86 14.6826C159.036 14.6826 154.607 17.5944 153.029 22.084H176.873C175.235 17.5338 170.745 14.6827 164.86 14.6826Z" fill="#181818"/>
</svg>
