<svg width="979" height="216" viewBox="0 0 979 216" fill="none" xmlns="http://www.w3.org/2000/svg">
<path d="M0 216L0 36.6931L40.607 36.6931V62.1336C54.3058 44.0317 77.3001 33.513 104.453 33.513C152.643 33.513 185.912 62.3783 185.912 103.719C185.912 144.815 152.154 174.414 104.453 174.414C77.3001 174.414 54.3058 163.896 40.607 146.039L40.8516 216H0ZM93.6897 147.506C124.267 147.506 145.549 129.894 145.549 103.964C145.549 77.7893 124.267 60.4213 93.6897 60.4213C62.3783 60.4213 40.8516 78.034 40.8516 103.964C40.8516 129.894 62.3783 147.506 93.6897 147.506Z" fill="#333333"/>
<path d="M199.238 171.234L199.238 0L239.6 0L239.6 171.234H199.238Z" fill="#333333"/>
<path d="M314.062 174.414C275.901 174.414 252.173 158.759 252.173 135.52C252.173 99.5606 300.853 96.8698 339.014 91.9774C362.497 89.0419 378.397 85.8618 378.397 75.8324C378.397 66.5368 365.922 58.9536 342.194 58.9536C316.508 58.9536 299.874 69.7169 294.493 85.128H256.087C264.16 55.2843 297.428 33.0238 343.661 33.0238C391.362 33.0238 419.005 51.8596 419.005 88.308V171.234H378.887V151.42C363.231 166.831 340.726 174.414 314.062 174.414ZM292.046 134.541C292.046 144.571 303.299 150.686 322.869 150.686C343.417 150.686 366.166 143.592 378.887 130.383V104.453C369.591 110.324 353.691 112.281 338.035 114.238C313.818 117.418 292.046 119.619 292.046 134.541Z" fill="#333333"/>
<path d="M516.394 171.234C485.572 171.234 471.628 157.536 471.628 131.361V64.3352H423.683V36.6931L471.628 36.6931V7.33862L511.502 7.33862V36.6931L571.923 36.6931V64.3352H511.502V126.224C511.502 137.966 518.596 143.103 533.762 143.103H571.923V171.234H516.394Z" fill="#333333"/>
<path d="M664.709 175.638C613.338 175.638 574.444 146.283 574.444 104.208C574.444 62.1336 614.561 32.2899 665.198 32.2899C714.611 32.2899 755.218 60.9105 755.218 107.144V109.59L614.806 109.59C617.497 133.074 637.311 148.24 665.198 148.24C687.703 148.24 704.826 138.7 712.654 122.555L753.017 122.555C742.498 153.866 709.23 175.638 664.709 175.638ZM664.709 59.1982C641.225 59.1982 623.368 70.94 617.008 89.0419L713.144 89.0419C706.539 70.6954 688.437 59.1982 664.709 59.1982Z" fill="#333333"/>
<path d="M852.906 175.148C805.939 175.148 772.67 157.046 763.864 124.023H803.248C809.119 140.412 826.732 149.708 852.417 149.708C880.304 149.708 892.779 142.614 892.779 133.318C892.779 120.598 870.763 118.886 845.323 116.929C809.119 113.993 765.577 111.058 765.577 77.5447C765.577 50.6365 794.197 32.7792 841.164 32.7792C887.887 32.7792 921.644 50.3918 931.185 82.1925L892.535 82.1925C885.196 66.2922 868.317 58.709 841.409 58.709C816.947 58.709 805.205 65.0691 805.205 73.6308C805.205 85.6172 825.998 87.5742 850.949 89.2865C887.397 91.9774 932.408 94.6682 932.408 129.404C932.408 156.068 902.075 175.148 852.906 175.148Z" fill="#333333"/>
<path d="M940.678 35.5242V17.1788L932.99 17.1788V13.2553L953.297 13.2553V17.1788H945.662V35.5242H940.678ZM954.464 35.5242V13.2553L961.675 13.2553L966.5 28.6844L971.272 13.2553L978.483 13.2553V35.5242H973.817L973.923 18.3453L968.78 35.5242H963.955L958.865 18.4514L958.918 35.5242H954.464Z" fill="#333333"/>
</svg>
